<svg xmlns="http://www.w3.org/2000/svg" viewBox="0 0 512 512" fill="none" width="100%" height="100%">
  <defs>
    <linearGradient id="favShieldGold" x1="0%" y1="0%" x2="100%" y2="100%">
      <stop offset="0%" stop-color="#FDF4DC"/>
      <stop offset="50%" stop-color="#C59E60"/>
      <stop offset="100%" stop-color="#7B5628"/>
    </linearGradient>
    <linearGradient id="favShieldBlue" x1="50%" y1="0%" x2="50%" y2="100%">
      <stop offset="0%" stop-color="#2a8cd6"/>
      <stop offset="60%" stop-color="#0f3b61"/>
      <stop offset="100%" stop-color="#071b2e"/>
    </linearGradient>
    <linearGradient id="favWingL" x1="0%" y1="0%" x2="100%" y2="100%">
      <stop offset="0%" stop-color="#67e8f9"/>
      <stop offset="100%" stop-color="#0284c7"/>
    </linearGradient>
    <linearGradient id="favWingR" x1="0%" y1="0%" x2="100%" y2="100%">
      <stop offset="0%" stop-color="#fef08a"/>
      <stop offset="100%" stop-color="#b45309"/>
    </linearGradient>
  </defs>
  <path d="M 256 62 C 320 86, 380 94, 404 102 C 410 162, 412 245, 382 328 C 356 400, 304 445, 256 468 C 208 445, 156 400, 130 328 C 100 245, 102 162, 108 102 C 132 94, 192 86, 256 62 Z" fill="url(#favShieldGold)"/>
  <path d="M 256 94 C 304 112, 350 119, 368 125 C 372 172, 374 236, 351 303 C 330 361, 290 398, 256 418 C 222 398, 182 361, 161 303 C 138 236, 140 172, 144 125 C 162 119, 208 112, 256 94 Z" fill="url(#favShieldBlue)"/>
  <path d="M 296 172 L 252 284 L 334 266 Z" fill="url(#favWingR)"/>
  <path d="M 296 172 L 174 246 L 252 284 Z" fill="url(#favWingL)"/>
  <path d="M 252 284 L 242 320 L 268 296 Z" fill="#0369a1"/>
  <path d="M 296 172 L 252 284" stroke="#ffffff" stroke-width="3" stroke-linecap="round"/>
</svg>
